<?xml version="1.0" standalone="no"?>
<!DOCTYPE svg PUBLIC "-//W3C//DTD SVG 20010904//EN"
 "http://www.w3.org/TR/2001/REC-SVG-20010904/DTD/svg10.dtd">
<svg version="1.0" xmlns="http://www.w3.org/2000/svg"
 width="323.000000pt" height="289.000000pt" viewBox="0 0 323.000000 289.000000"
 preserveAspectRatio="xMidYMid meet">

<g transform="translate(0.000000,289.000000) scale(0.100000,-0.100000)"
fill="#000000" stroke="none">
<path d="M1582 2851 c-7 -4 -103 -145 -212 -312 -230 -353 -387 -592 -552
-843 -65 -98 -118 -182 -118 -186 0 -4 -57 -124 -126 -266 -69 -142 -154 -317
-189 -389 -34 -71 -123 -254 -198 -406 -74 -152 -137 -285 -141 -295 -3 -11 0
-29 8 -39 12 -17 41 -20 382 -32 203 -7 553 -19 779 -27 352 -13 447 -13 675
-1 146 8 360 19 475 25 797 40 789 40 803 57 16 23 13 32 -88 228 -48 94 -201
395 -340 670 -139 275 -283 547 -321 605 -37 58 -95 148 -129 200 -33 52 -122
190 -198 307 -75 117 -204 317 -287 445 -82 128 -158 241 -167 250 -20 20 -36
22 -56 9z m483 -1078 l402 -268 6 -75 c19 -253 49 -849 44 -871 -15 -58 -44
-76 -464 -284 l-417 -206 -330 157 c-556 264 -553 263 -578 301 -20 34 -21 43
-15 197 17 452 28 696 33 743 l5 52 97 62 c53 35 230 150 392 257 162 107 306
199 320 203 66 22 86 11 505 -268z"/>
<path d="M1516 1960 c-73 -47 -100 -162 -53 -230 89 -133 297 -75 297 83 0 98
-69 168 -166 166 -30 0 -61 -8 -78 -19z"/>
<path d="M915 816 c-93 -41 -129 -149 -78 -236 45 -78 165 -101 237 -46 98 75
83 227 -28 277 -48 22 -89 23 -131 5z"/>
<path d="M2205 816 c-16 -7 -43 -28 -60 -45 -24 -26 -30 -41 -33 -94 -3 -52 0
-67 20 -96 39 -58 72 -76 138 -76 44 0 66 5 87 21 98 73 99 205 1 277 -34 25
-113 32 -153 13z"/>
</g>
</svg>
